Coordinates
version=1
nRows=16
nColumns=22
inDegrees=yes

Units are S.I. units (second, meters, Newtons, ...)
If the header above contains a line with 'inDegrees', this indicates whether rotational values are in degrees (yes) or radians (no).

endheader
time	pelvis_tilt	pelvis_list	pelvis_rotation	pelvis_tx	pelvis_ty	pelvis_tz	hip_flexion_r	hip_adduction_r	hip_rotation_r	knee_angle_r	ankle_angle_r	subtalar_angle_r	hip_flexion_l	hip_adduction_l	hip_rotation_l	knee_angle_l	ankle_angle_l	subtalar_angle_l	lumbar_extension	lumbar_bending	lumbar_rotation
      1.48000000	      5.57343529	     -3.14095500	      5.60049620	      1.12767356	      0.94464478	     -0.06698425	     -7.34783313	      4.79046215	     -8.35020587	     -6.70372739	      9.86043751	     -0.21812362	     -4.30955192	     -4.83712587	    -12.41214998	    -14.49233941	     21.31468444	     -5.87908382	    -11.83091990	      3.51319301	     -8.74054723
      1.49000000	      5.58252996	     -3.14163211	      5.61474406	      1.12754918	      0.94466590	     -0.06687635	     -7.34467944	      4.79982577	     -8.36630036	     -6.71433067	      9.83005995	     -0.23478707	     -4.28820185	     -4.85136965	    -12.39731445	    -14.53196752	     21.29258890	     -5.87675791	    -11.82904786	      3.53678891	     -8.74980308
      1.50000000	      5.58969148	     -3.13283048	      5.62013204	      1.12746085	      0.94468777	     -0.06675224	     -7.34723569	      4.79950945	     -8.36678144	     -6.71687131	      9.82791631	     -0.23608655	     -4.28779858	     -4.85128746	    -12.39746857	    -14.53264246	     21.29224446	     -5.87637508	    -11.81996116	      3.54469552	     -8.74830936
      1.51000000	      5.59726046	     -3.12310166	      5.62452542	      1.12736565	      0.94471083	     -0.06663296	     -7.34957889	      4.79769174	     -8.36799333	     -6.71964793	      9.82423609	     -0.23752905	     -4.28729752	     -4.84985792	    -12.39589238	    -14.53526228	     21.29029943	     -5.87610191	    -11.81498754	      3.55662492	     -8.74519481
      1.52000000	      5.61614223	     -3.11570362	      5.63158085	      1.12722885	      0.94475093	     -0.06651026	     -7.35678136	      4.79991579	     -8.38267213	     -6.73134381	      9.79642115	     -0.24601330	     -4.28965689	     -4.85246262	    -12.37797596	    -14.55053566	     21.27080246	     -5.87589516	    -11.83435753	      3.57158295	     -8.72905767
      1.53000000	      5.62311458	     -3.10465402	      5.63781197	      1.12712559	      0.94477122	     -0.06639591	     -7.35939026	      4.79759443	     -8.38242275	     -6.73374709	      9.79383588	     -0.24685364	     -4.28905358	     -4.84911277	    -12.37834231	    -14.54967814	     21.26900278	     -5.87596144	    -11.83153646	      3.58412344	     -8.72563788
      1.54000000	      5.64633095	     -3.09207899	      5.63910143	      1.12697866	      0.94482031	     -0.06627096	     -7.37051025	      4.79396334	     -8.38868305	     -6.74586170	      9.76996424	     -0.25389228	     -4.30179834	     -4.84420173	    -12.36231591	    -14.55518273	     21.24414427	     -5.87824047	    -11.86086664	      3.59558105	     -8.70017168
      1.55000000	      5.68370806	     -3.07401624	      5.63725294	      1.12687579	      0.94489597	     -0.06614694	     -7.40576670	      4.78617750	     -8.38486344	     -6.74919186	      9.74616832	     -0.26821869	     -4.35238696	     -4.83118148	    -12.36035403	    -14.52243813	     21.20394820	     -5.88597823	    -11.89867716	      3.60043706	     -8.67529420
      1.56000000	      5.68884950	     -3.06281558	      5.64295580	      1.12675166	      0.94491192	     -0.06602881	     -7.40463825	      4.78409624	     -8.38237221	     -6.74826259	      9.74660399	     -0.26865880	     -4.34968905	     -4.82725346	    -12.36112061	    -14.51985868	     21.20360106	     -5.88612604	    -11.90157833	      3.61219589	     -8.67119580
      1.57000000	      5.69548899	     -3.05254444	      5.64968943	      1.12661985	      0.94492945	     -0.06590440	     -7.40246114	      4.78363874	     -8.37743453	     -6.75026682	      9.74701166	     -0.26938878	     -4.34747545	     -4.82497012	    -12.36010739	    -14.51767279	     21.20129877	     -5.88652982	    -11.90745406	      3.62240237	     -8.66351042
      1.58000000	      5.71404161	     -3.05062272	      5.64377974	      1.12645900	      0.94496470	     -0.06573271	     -7.39973333	      4.79258267	     -8.34807336	     -6.77195351	      9.75107541	     -0.27474031	     -4.35638321	     -4.83257379	    -12.34314132	    -14.52016751	     21.18066987	     -5.88956373	    -11.93435879	      3.63354789	     -8.63007156
      1.59000000	      5.71910849	     -3.04281515	      5.65156273	      1.12632999	      0.94498034	     -0.06558309	     -7.39525447	      4.79655992	     -8.34335073	     -6.77187253	      9.75198296	     -0.27563510	     -4.35406327	     -4.83509715	    -12.34569952	    -14.51382817	     21.17846540	     -5.89005342	    -11.93778914	      3.63828148	     -8.62611403
      1.60000000	      5.72940672	     -3.05242574	      5.64921065	      1.12619065	      0.94500591	     -0.06539834	     -7.38628453	      4.81959988	     -8.30829258	     -6.78676589	      9.75883074	     -0.28341823	     -4.35695433	     -4.85684679	    -12.33949572	    -14.50845314	     21.15624163	     -5.89149259	    -11.94667094	      3.65967070	     -8.61456369
      1.61000000	      5.73422898	     -3.04674672	      5.65711986	      1.12607436	      0.94502564	     -0.06522569	     -7.38199715	      4.82716102	     -8.30405751	     -6.78625495	      9.75924557	     -0.28468417	     -4.35438353	     -4.86338852	    -12.34117978	    -14.50446693	     21.15438585	     -5.89138669	    -11.94696203	      3.65884016	     -8.61337833
      1.62000000	      5.74114555	     -3.06181586	      5.66526230	      1.12595065	      0.94505061	     -0.06504298	     -7.37537247	      4.85819735	     -8.28014669	     -6.79071072	      9.76048996	     -0.29537410	     -4.34871065	     -4.89447617	    -12.33571406	    -14.50597526	     21.13416175	     -5.88783951	    -11.94578934	      3.68742375	     -8.63016892
      1.63000000	      5.74799433	     -3.05728457	      5.67184344	      1.12584253	      0.94508054	     -0.06484485	     -7.37349617	      4.86821953	     -8.27892778	     -6.79133846	      9.75941646	     -0.29710245	     -4.34738115	     -4.90453640	    -12.33571149	    -14.50464216	     21.13228581	     -5.88690062	    -11.94208230	      3.68442521	     -8.63286979
